PathFileType	4	(x/y/z)	A01_PREF_T0018.trc
DataRate	CameraRate	NumFrames	NumMarkers	Units	OrigDataRate	OrigDataStartFrame	OrigNumFrames
240	240	10	48	mm	240	36	285
Frame#	Time	TOP_HEAD			R_AC			L_AC			R_ASIS			L_ASIS			R_PSIS			L_PSIS			SACRAL			L_IC			R_IC			L_GT			R_GT			R_LAT_KNEE			R_MED_KNEE			L_MED_KNEE			L_LAT_KNEE			R_TOE			L_TOE			R_1ST_MET			L_1ST_MET			L_5TH_MET			R_5TH_MET			R_LAT_ANK			R_MED_ANK			L_MED_ANK			L_LAT_ANK			L_HEEL_SUP			R_HEEL_SUP			L_HEEL_LAT			R_HEEL_LAT			L_HEEL_MED			R_HEEL_MED			R_SHANK_PROX_POST			R_SHANK_PROX_ANT			R_SHANK_DIST_ANT			R_SHANK_DIST_POST			R_THIGH_PROX_POST			R_THIGH_PROX_ANT			R_THIGH_DIST_ANT			R_THIGH_DIST_POST			L_SHANK_PROX_ANT			L_SHANK_PROX_POST			L_SHANK_DIST_POST			L_SHANK_DIST_ANT			L_THIGH_PROX_ANT			L_THIGH_PROX_POST			L_THIGH_DIST_POST			L_THIGH_DIST_ANT			
		X1	Y1	Z1	X2	Y2	Z2	X3	Y3	Z3	X4	Y4	Z4	X5	Y5	Z5	X6	Y6	Z6	X7	Y7	Z7	X8	Y8	Z8	X9	Y9	Z9	X10	Y10	Z10	X11	Y11	Z11	X12	Y12	Z12	X13	Y13	Z13	X14	Y14	Z14	X15	Y15	Z15	X16	Y16	Z16	X17	Y17	Z17	X18	Y18	Z18	X19	Y19	Z19	X20	Y20	Z20	X21	Y21	Z21	X22	Y22	Z22	X23	Y23	Z23	X24	Y24	Z24	X25	Y25	Z25	X26	Y26	Z26	X27	Y27	Z27	X28	Y28	Z28	X29	Y29	Z29	X30	Y30	Z30	X31	Y31	Z31	X32	Y32	Z32	X33	Y33	Z33	X34	Y34	Z34	X35	Y35	Z35	X36	Y36	Z36	X37	Y37	Z37	X38	Y38	Z38	X39	Y39	Z39	X40	Y40	Z40	X41	Y41	Z41	X42	Y42	Z42	X43	Y43	Z43	X44	Y44	Z44	X45	Y45	Z45	X46	Y46	Z46	X47	Y47	Z47	X48	Y48	Z48	

36	0.14635	-330.77	1722.7	289.04	-539.75	1541.6	546.16	-615.9	1515.7	94.391	-595.85	1066.9	559.24	-578.09	1015	207.86	-804.97	1080	423.71	-793	1071.2	293.44	-816.43	1046.5	357.89	-609.74	1124.9	160.27	-616.73	1188.1	553.85	-630.72	933.29	167.3	-679.45	964.71	597.03	-775.22	569.17	546.83	-665.36	541.98	431.67	-474.41	563.74	388.61	-499.73	569.43	230.25	-977.31	54.028	444.88	-236.56	100.21	272.89	-1044	64.716	395.02	-312.16	66.557	330.58	-344.15	56.113	201.83	-1068.1	70.401	529.51	-1076.8	210.71	509.31	-1058.9	210.46	409.07	-450.79	125.3	317.76	-480.43	114.03	250.47	-559.52	65.861	291.15	-1157.4	264.13	446.62	-544.81	39.099	259.37	-1174.3	244.62	479.84	-533.94	37.842	323.99	-1172.7	242.51	419.96	-950.87	483.52	533.14	-903.82	435.45	561.43	-943.27	372.97	542.63	-984.38	407.61	524.45	-749.85	836.8	573.25	-678.52	843.66	584.42	-690.94	752.73	578.32	-758.33	747.61	564.84	-440.99	495.01	241.09	-495.29	485.9	230.85	-491.36	423.25	237.97	-440.13	438.79	246.83	-527.44	817.16	206.43	-595.35	802.12	187.75	-563.65	733.57	200.92	-501.82	748.39	217.65
37	0.15053	-324.86	1723.1	287.92	-533.81	1542.7	545.01	-609.31	1516	93.263	-590.1	1067.6	558.78	-572.58	1015.7	207.37	-799.17	1080.5	423.91	-787.39	1071.9	293.59	-810.65	1047.1	358.13	-604.02	1125.3	159.84	-610.75	1189.1	553.25	-625.55	934.03	167.03	-672.98	965.02	596.78	-765.05	568.43	547.6	-658.34	541.71	431.86	-469.83	563.87	387.69	-495.31	569.49	229.34	-975.45	52.966	445.11	-236.06	98.709	272.67	-1041	67.077	395.13	-311.79	65.547	330.47	-343.92	55.23	201.69	-1065.5	73.222	529.39	-1070.4	214.02	509.59	-1052.2	213.49	409.43	-449.94	125.13	317.55	-479.74	113.96	250.31	-559.25	66.118	291.13	-1149	269.82	446.67	-544.64	39.33	259.37	-1166.4	250.66	479.86	-533.77	38.042	323.99	-1165.1	248.77	420.03	-941.08	484.89	533.38	-894.81	436.26	562.02	-934.93	374.31	543.1	-975.59	409.45	524.71	-742.24	836.07	573.49	-671	843.68	584.4	-682.49	752.62	578.57	-749.83	746.78	565.23	-437.17	494.61	240.22	-491.56	485.94	230.06	-488.13	423.27	237.26	-436.77	438.39	246.05	-522.52	817.37	205.48	-590.62	802.62	187.32	-559.17	733.94	200.36	-497.15	748.5	216.59
38	0.15471	-319	1723.5	286.85	-527.92	1543.8	543.89	-602.72	1516.4	92.164	-584.37	1068.4	558.33	-567.07	1016.5	206.88	-793.37	1080.9	424.06	-781.77	1072.5	293.7	-804.87	1047.5	358.32	-598.33	1125.6	159.41	-604.82	1190.1	552.67	-620.37	934.76	166.75	-666.51	965.35	596.53	-754.78	567.7	548.37	-651.22	541.47	432.03	-465.34	563.98	386.76	-490.97	569.53	228.43	-973.39	51.857	445.36	-235.57	97.266	272.45	-1037.7	69.577	395.28	-311.44	64.581	330.37	-343.69	54.383	201.56	-1062.6	76.239	529.3	-1063.7	217.44	509.88	-1045.2	216.61	409.8	-449.12	124.97	317.35	-479.08	113.89	250.16	-558.99	66.37	291.11	-1140.4	275.56	446.75	-544.46	39.558	259.36	-1158.3	256.76	479.92	-533.6	38.238	323.98	-1157.1	255.07	420.11	-931.13	486.29	533.64	-885.64	437.11	562.62	-926.44	375.7	543.58	-966.63	411.33	524.99	-734.59	835.35	573.74	-663.45	843.72	584.4	-673.97	752.54	578.85	-741.28	745.96	565.65	-433.44	494.21	239.34	-487.91	485.95	229.26	-484.98	423.28	236.54	-433.48	437.97	245.26	-517.63	817.55	204.53	-585.91	803.12	186.87	-554.71	734.28	199.79	-492.51	748.59	215.53
39	0.15889	-313.19	1723.8	285.82	-522.09	1544.9	542.8	-596.14	1516.8	91.097	-578.67	1069.2	557.89	-561.54	1017.2	206.41	-787.58	1081.3	424.17	-776.15	1073.2	293.76	-799.08	1048	358.45	-592.66	1126	159	-598.94	1191	552.1	-615.18	935.47	166.45	-660.03	965.69	596.28	-744.42	567.01	549.14	-644.01	541.26	432.2	-460.94	564.07	385.83	-486.72	569.54	227.52	-971.12	50.712	445.62	-235.11	95.889	272.24	-1034.2	72.201	395.49	-311.11	63.666	330.27	-343.48	53.575	201.43	-1059.4	79.442	529.24	-1056.8	220.94	510.17	-1038.1	219.82	410.16	-448.33	124.83	317.15	-478.45	113.85	250.02	-558.73	66.614	291.1	-1131.7	281.31	446.85	-544.3	39.783	259.36	-1150	262.88	480	-533.44	38.43	323.97	-1149	261.37	420.21	-921.03	487.71	533.91	-876.31	438	563.22	-917.79	377.14	544.06	-957.51	413.25	525.28	-726.89	834.64	574.01	-655.87	843.78	584.41	-665.41	752.48	579.15	-732.66	745.17	566.09	-429.78	493.79	238.45	-484.34	485.95	228.46	-481.9	423.28	235.83	-430.27	437.55	244.47	-512.74	817.7	203.58	-581.21	803.61	186.41	-550.29	734.61	199.2	-487.91	748.63	214.47
40	0.16307	-307.44	1724.2	284.84	-516.34	1546	541.76	-589.58	1517.3	90.062	-572.99	1070	557.46	-556.01	1017.9	205.96	-781.8	1081.6	424.22	-770.54	1073.8	293.77	-793.29	1048.4	358.54	-587.01	1126.3	158.58	-593.11	1191.9	551.54	-609.96	936.16	166.15	-653.56	966.05	596.04	-733.98	566.35	549.9	-636.7	541.09	432.36	-456.62	564.14	384.89	-482.55	569.54	226.61	-968.62	49.544	445.9	-234.68	94.586	272.03	-1030.3	74.935	395.74	-310.79	62.808	330.17	-343.28	52.809	201.31	-1055.9	82.818	529.2	-1049.8	224.54	510.45	-1030.8	223.09	410.51	-447.58	124.7	316.96	-477.84	113.81	249.88	-558.47	66.851	291.08	-1122.7	287.05	446.97	-544.14	40.003	259.36	-1141.5	269.01	480.1	-533.27	38.617	323.96	-1140.6	267.65	420.32	-910.8	489.16	534.2	-866.84	438.92	563.82	-909	378.63	544.53	-948.24	415.2	525.58	-719.15	833.96	574.28	-648.25	843.86	584.43	-656.8	752.46	579.46	-723.99	744.41	566.55	-426.2	493.37	237.57	-480.84	485.93	227.68	-478.88	423.27	235.12	-427.12	437.13	243.69	-507.87	817.84	202.64	-576.51	804.08	185.93	-545.88	734.93	198.6	-483.33	748.66	213.43
41	0.16725	-301.74	1724.6	283.9	-510.65	1547.1	540.75	-583.03	1517.7	89.06	-567.34	1070.9	557.04	-550.46	1018.6	205.52	-776.03	1081.9	424.23	-764.92	1074.4	293.73	-787.5	1048.7	358.57	-581.36	1126.7	158.18	-587.34	1192.8	550.99	-604.72	936.83	165.82	-647.09	966.41	595.8	-723.46	565.73	550.66	-629.29	540.96	432.5	-452.38	564.19	383.96	-478.46	569.51	225.72	-965.86	48.368	446.2	-234.27	93.364	271.83	-1026.1	77.759	396.03	-310.49	62.012	330.08	-343.09	52.089	201.19	-1052	86.349	529.18	-1042.5	228.2	510.72	-1023.3	226.43	410.85	-446.85	124.59	316.77	-477.26	113.79	249.74	-558.23	67.081	291.07	-1113.6	292.75	447.09	-543.99	40.219	259.37	-1132.8	275.11	480.21	-533.12	38.797	323.96	-1132.1	273.86	420.43	-900.44	490.64	534.5	-857.24	439.88	564.41	-900.07	380.15	545	-938.83	417.18	525.88	-711.36	833.29	574.57	-640.6	843.97	584.47	-648.15	752.47	579.79	-715.28	743.67	567.03	-422.7	492.94	236.71	-477.41	485.9	226.91	-475.93	423.26	234.41	-424.04	436.71	242.93	-503	817.95	201.72	-571.82	804.55	185.44	-541.49	735.23	198	-478.77	748.65	212.41
42	0.17143	-296.1	1725.1	283.01	-505.04	1548.1	539.79	-576.51	1518.2	88.092	-561.7	1071.8	556.62	-544.9	1019.2	205.09	-770.27	1082.1	424.19	-759.3	1075	293.63	-781.71	1049.1	358.54	-575.71	1127	157.78	-581.62	1193.6	550.46	-599.45	937.49	165.49	-640.61	966.77	595.56	-712.89	565.15	551.41	-621.77	540.87	432.63	-448.22	564.23	383.04	-474.44	569.47	224.84	-962.81	47.204	446.52	-233.9	92.229	271.63	-1021.6	80.657	396.37	-310.22	61.282	329.98	-342.92	51.417	201.08	-1047.7	90.014	529.2	-1035.1	231.92	510.97	-1015.7	229.81	411.16	-446.16	124.5	316.6	-476.71	113.78	249.61	-557.99	67.305	291.06	-1104.3	298.39	447.21	-543.84	40.43	259.37	-1124	281.15	480.32	-532.97	38.971	323.95	-1123.3	279.97	420.52	-889.97	492.13	534.81	-847.51	440.87	564.99	-891.03	381.72	545.46	-929.27	419.18	526.18	-703.53	832.65	574.85	-632.92	844.1	584.51	-639.47	752.52	580.13	-706.52	742.97	567.51	-419.26	492.51	235.86	-474.05	485.87	226.15	-473.03	423.24	233.72	-421.03	436.28	242.17	-498.14	818.04	200.81	-567.12	805.01	184.93	-537.1	735.52	197.4	-474.23	748.63	211.41
43	0.17562	-290.5	1725.5	282.17	-499.51	1549.2	538.87	-570.01	1518.7	87.159	-556.09	1072.7	556.21	-539.33	1019.8	204.68	-764.52	1082.3	424.09	-753.69	1075.6	293.48	-775.93	1049.4	358.46	-570.05	1127.4	157.38	-575.95	1194.4	549.93	-594.16	938.12	165.14	-634.14	967.14	595.32	-702.27	564.63	552.14	-614.16	540.81	432.74	-444.15	564.24	382.13	-470.5	569.42	223.99	-959.44	46.075	446.85	-233.55	91.187	271.43	-1016.6	83.608	396.75	-309.97	60.621	329.88	-342.76	50.796	200.96	-1043	93.786	529.24	-1027.4	235.67	511.21	-1007.9	233.22	411.45	-445.49	124.42	316.43	-476.18	113.78	249.49	-557.77	67.522	291.05	-1094.9	303.91	447.31	-543.71	40.633	259.37	-1115	287.08	480.43	-532.82	39.137	323.95	-1114.4	285.95	420.59	-879.4	493.64	535.12	-837.68	441.89	565.55	-881.86	383.31	545.9	-919.6	421.19	526.49	-695.67	832.03	575.13	-625.21	844.26	584.55	-630.77	752.6	580.47	-697.73	742.3	568	-415.89	492.07	235.03	-470.75	485.82	225.42	-470.2	423.22	233.05	-418.08	435.86	241.44	-493.27	818.13	199.94	-562.4	805.46	184.43	-532.71	735.81	196.79	-469.69	748.6	210.45
44	0.1798	-284.95	1726	281.39	-494.05	1550.2	538.01	-563.55	1519.1	86.261	-550.49	1073.7	555.81	-533.74	1020.4	204.29	-758.78	1082.5	423.96	-748.07	1076.2	293.27	-770.15	1049.7	358.31	-564.38	1127.7	156.99	-570.35	1195.2	549.42	-588.85	938.74	164.78	-627.67	967.51	595.09	-691.6	564.16	552.86	-606.43	540.79	432.85	-440.17	564.23	381.22	-466.62	569.36	223.16	-955.71	45.005	447.22	-233.24	90.243	271.24	-1011.3	86.59	397.16	-309.74	60.031	329.79	-342.61	50.23	200.85	-1038	97.636	529.32	-1019.6	239.45	511.41	-1000	236.65	411.71	-444.86	124.36	316.27	-475.68	113.81	249.38	-557.55	67.734	291.04	-1085.4	309.31	447.38	-543.58	40.829	259.38	-1105.9	292.87	480.51	-532.69	39.297	323.95	-1105.4	291.75	420.63	-868.76	495.17	535.45	-827.74	442.94	566.09	-872.59	384.93	546.33	-909.81	423.22	526.79	-687.78	831.44	575.4	-617.46	844.44	584.59	-622.03	752.73	580.8	-688.91	741.68	568.49	-412.58	491.63	234.23	-467.51	485.77	224.71	-467.42	423.2	232.4	-415.19	435.44	240.74	-488.41	818.21	199.1	-557.68	805.9	183.92	-528.31	736.09	196.19	-465.16	748.55	209.52
45	0.18398	-279.44	1726.4	280.65	-488.68	1551.2	537.2	-557.11	1519.6	85.4	-544.91	1074.7	555.4	-528.13	1021	203.91	-753.05	1082.5	423.77	-742.46	1076.7	293.03	-764.38	1049.9	358.12	-558.69	1128.1	156.6	-564.79	1195.9	548.92	-583.5	939.35	164.41	-621.2	967.87	594.86	-680.89	563.76	553.55	-598.6	540.82	432.93	-436.27	564.21	380.33	-462.81	569.29	222.36	-951.58	44.025	447.6	-232.95	89.397	271.05	-1005.6	89.582	397.6	-309.53	59.513	329.69	-342.48	49.719	200.75	-1032.4	101.53	529.42	-1011.7	243.23	511.58	-991.98	240.07	411.94	-444.25	124.31	316.13	-475.21	113.85	249.27	-557.34	67.94	291.04	-1075.9	314.53	447.42	-543.47	41.017	259.38	-1096.8	298.48	480.57	-532.55	39.45	323.94	-1096.3	297.33	420.63	-858.04	496.71	535.78	-817.7	444.02	566.61	-863.22	386.56	546.75	-899.92	425.25	527.1	-679.85	830.88	575.67	-609.7	844.66	584.63	-613.27	752.89	581.13	-680.05	741.1	568.98	-409.34	491.19	233.46	-464.34	485.73	224.03	-464.7	423.18	231.78	-412.36	435.02	240.06	-483.54	818.28	198.29	-552.95	806.34	183.41	-523.9	736.37	195.6	-460.63	748.5	208.64
